<svg xmlns="http://www.w3.org/2000/svg" width="860" height="450" viewBox="0 0 860 450" font-family="-apple-system, Segoe UI, Roboto, Helvetica, Arial, sans-serif">
<rect width="860" height="450" rx="10" fill="#ffffff" stroke="#e5e9f0"/>
<text x="72" y="32" font-size="16" font-weight="700" fill="#1f2933">Latency p95 (ms) — lower is better</text>
<rect x="562" y="19" width="12" height="12" rx="2" fill="#9ecae1"/>
<text x="579" y="29" font-size="12" fill="#3e4c59">50 VUs</text>
<rect x="654" y="19" width="12" height="12" rx="2" fill="#4292c6"/>
<text x="671" y="29" font-size="12" fill="#3e4c59">100 VUs</text>
<rect x="746" y="19" width="12" height="12" rx="2" fill="#08519c"/>
<text x="763" y="29" font-size="12" fill="#3e4c59">300 VUs</text>
<line x1="72" y1="386.0" x2="838" y2="386.0" stroke="#9aa5b1"/>
<text x="64" y="390.0" font-size="11" fill="#7b8794" text-anchor="end">0</text>
<line x1="72" y1="322.8" x2="838" y2="322.8" stroke="#eceff4"/>
<text x="64" y="326.8" font-size="11" fill="#7b8794" text-anchor="end">120</text>
<line x1="72" y1="259.6" x2="838" y2="259.6" stroke="#eceff4"/>
<text x="64" y="263.6" font-size="11" fill="#7b8794" text-anchor="end">240</text>
<line x1="72" y1="196.4" x2="838" y2="196.4" stroke="#eceff4"/>
<text x="64" y="200.4" font-size="11" fill="#7b8794" text-anchor="end">360</text>
<line x1="72" y1="133.2" x2="838" y2="133.2" stroke="#eceff4"/>
<text x="64" y="137.2" font-size="11" fill="#7b8794" text-anchor="end">480</text>
<line x1="72" y1="70.0" x2="838" y2="70.0" stroke="#eceff4"/>
<text x="64" y="74.0" font-size="11" fill="#7b8794" text-anchor="end">600</text>
<text x="18" y="228" font-size="12" fill="#3e4c59" text-anchor="middle" transform="rotate(-90 18 228)">ms</text>
<rect x="93.4" y="362.7" width="33.8" height="23.3" rx="2" fill="#9ecae1"/>
<text x="110.3" y="358.7" font-size="9" fill="#52606d" text-anchor="middle">44</text>
<rect x="130.2" y="346.5" width="33.8" height="39.5" rx="2" fill="#4292c6"/>
<text x="147.1" y="342.5" font-size="9" fill="#52606d" text-anchor="middle">75</text>
<rect x="167.0" y="280.4" width="33.8" height="105.6" rx="2" fill="#08519c"/>
<text x="183.9" y="276.4" font-size="9" fill="#52606d" text-anchor="middle">201</text>
<text x="148.6" y="408" font-size="11.5" fill="#1f2933" text-anchor="middle">rust</text>
<rect x="246.6" y="359.3" width="33.8" height="26.7" rx="2" fill="#9ecae1"/>
<text x="263.5" y="355.3" font-size="9" fill="#52606d" text-anchor="middle">51</text>
<rect x="283.4" y="331.6" width="33.8" height="54.4" rx="2" fill="#4292c6"/>
<text x="300.3" y="327.6" font-size="9" fill="#52606d" text-anchor="middle">103</text>
<rect x="320.2" y="234.5" width="33.8" height="151.5" rx="2" fill="#08519c"/>
<text x="337.1" y="230.5" font-size="9" fill="#52606d" text-anchor="middle">288</text>
<text x="301.8" y="408" font-size="11.5" fill="#1f2933" text-anchor="middle">mvc-jvm</text>
<rect x="399.8" y="360.1" width="33.8" height="25.9" rx="2" fill="#9ecae1"/>
<text x="416.7" y="356.1" font-size="9" fill="#52606d" text-anchor="middle">49</text>
<rect x="436.6" y="335.0" width="33.8" height="51.0" rx="2" fill="#4292c6"/>
<text x="453.5" y="331.0" font-size="9" fill="#52606d" text-anchor="middle">97</text>
<rect x="473.4" y="226.2" width="33.8" height="159.8" rx="2" fill="#08519c"/>
<text x="490.3" y="222.2" font-size="9" fill="#52606d" text-anchor="middle">303</text>
<text x="455.0" y="408" font-size="11.5" fill="#1f2933" text-anchor="middle">webflux-jvm</text>
<rect x="553.0" y="356.8" width="33.8" height="29.2" rx="2" fill="#9ecae1"/>
<text x="569.9" y="352.8" font-size="9" fill="#52606d" text-anchor="middle">55</text>
<rect x="589.8" y="326.3" width="33.8" height="59.7" rx="2" fill="#4292c6"/>
<text x="606.7" y="322.3" font-size="9" fill="#52606d" text-anchor="middle">113</text>
<rect x="626.6" y="222.8" width="33.8" height="163.2" rx="2" fill="#08519c"/>
<text x="643.5" y="218.8" font-size="9" fill="#52606d" text-anchor="middle">310</text>
<text x="608.2" y="408" font-size="11.5" fill="#1f2933" text-anchor="middle">mvc-native</text>
<rect x="706.2" y="336.1" width="33.8" height="49.9" rx="2" fill="#9ecae1"/>
<text x="723.1" y="332.1" font-size="9" fill="#52606d" text-anchor="middle">95</text>
<rect x="743.0" y="290.9" width="33.8" height="95.1" rx="2" fill="#4292c6"/>
<text x="759.9" y="286.9" font-size="9" fill="#52606d" text-anchor="middle">181</text>
<rect x="779.8" y="109.1" width="33.8" height="276.9" rx="2" fill="#08519c"/>
<text x="796.7" y="105.1" font-size="9" fill="#52606d" text-anchor="middle">526</text>
<text x="761.4" y="408" font-size="11.5" fill="#1f2933" text-anchor="middle">webflux-native</text>
</svg>