<svg xmlns="http://www.w3.org/2000/svg" width="860" height="450" viewBox="0 0 860 450" font-family="-apple-system, Segoe UI, Roboto, Helvetica, Arial, sans-serif">
<rect width="860" height="450" rx="10" fill="#ffffff" stroke="#e5e9f0"/>
<text x="72" y="32" font-size="16" font-weight="700" fill="#1f2933">Latency avg (ms) — lower is better</text>
<rect x="562" y="19" width="12" height="12" rx="2" fill="#9ecae1"/>
<text x="579" y="29" font-size="12" fill="#3e4c59">50 VUs</text>
<rect x="654" y="19" width="12" height="12" rx="2" fill="#4292c6"/>
<text x="671" y="29" font-size="12" fill="#3e4c59">100 VUs</text>
<rect x="746" y="19" width="12" height="12" rx="2" fill="#08519c"/>
<text x="763" y="29" font-size="12" fill="#3e4c59">300 VUs</text>
<line x1="72" y1="386.0" x2="838" y2="386.0" stroke="#9aa5b1"/>
<text x="64" y="390.0" font-size="11" fill="#7b8794" text-anchor="end">0</text>
<line x1="72" y1="322.8" x2="838" y2="322.8" stroke="#eceff4"/>
<text x="64" y="326.8" font-size="11" fill="#7b8794" text-anchor="end">80</text>
<line x1="72" y1="259.6" x2="838" y2="259.6" stroke="#eceff4"/>
<text x="64" y="263.6" font-size="11" fill="#7b8794" text-anchor="end">160</text>
<line x1="72" y1="196.4" x2="838" y2="196.4" stroke="#eceff4"/>
<text x="64" y="200.4" font-size="11" fill="#7b8794" text-anchor="end">240</text>
<line x1="72" y1="133.2" x2="838" y2="133.2" stroke="#eceff4"/>
<text x="64" y="137.2" font-size="11" fill="#7b8794" text-anchor="end">320</text>
<line x1="72" y1="70.0" x2="838" y2="70.0" stroke="#eceff4"/>
<text x="64" y="74.0" font-size="11" fill="#7b8794" text-anchor="end">400</text>
<text x="18" y="228" font-size="12" fill="#3e4c59" text-anchor="middle" transform="rotate(-90 18 228)">ms</text>
<rect x="93.4" y="366.9" width="33.8" height="19.1" rx="2" fill="#9ecae1"/>
<text x="110.3" y="362.9" font-size="9" fill="#52606d" text-anchor="middle">24.2</text>
<rect x="130.2" y="347.2" width="33.8" height="38.8" rx="2" fill="#4292c6"/>
<text x="147.1" y="343.2" font-size="9" fill="#52606d" text-anchor="middle">49.1</text>
<rect x="167.0" y="268.7" width="33.8" height="117.3" rx="2" fill="#08519c"/>
<text x="183.9" y="264.7" font-size="9" fill="#52606d" text-anchor="middle">148.5</text>
<text x="148.6" y="408" font-size="11.5" fill="#1f2933" text-anchor="middle">rust</text>
<rect x="246.6" y="365.9" width="33.8" height="20.1" rx="2" fill="#9ecae1"/>
<text x="263.5" y="361.9" font-size="9" fill="#52606d" text-anchor="middle">25.5</text>
<rect x="283.4" y="343.9" width="33.8" height="42.1" rx="2" fill="#4292c6"/>
<text x="300.3" y="339.9" font-size="9" fill="#52606d" text-anchor="middle">53.3</text>
<rect x="320.2" y="259.2" width="33.8" height="126.8" rx="2" fill="#08519c"/>
<text x="337.1" y="255.2" font-size="9" fill="#52606d" text-anchor="middle">160.5</text>
<text x="301.8" y="408" font-size="11.5" fill="#1f2933" text-anchor="middle">mvc-jvm</text>
<rect x="399.8" y="365.1" width="33.8" height="20.9" rx="2" fill="#9ecae1"/>
<text x="416.7" y="361.1" font-size="9" fill="#52606d" text-anchor="middle">26.4</text>
<rect x="436.6" y="342.9" width="33.8" height="43.1" rx="2" fill="#4292c6"/>
<text x="453.5" y="338.9" font-size="9" fill="#52606d" text-anchor="middle">54.6</text>
<rect x="473.4" y="253.3" width="33.8" height="132.7" rx="2" fill="#08519c"/>
<text x="490.3" y="249.3" font-size="9" fill="#52606d" text-anchor="middle">168.0</text>
<text x="455.0" y="408" font-size="11.5" fill="#1f2933" text-anchor="middle">webflux-jvm</text>
<rect x="553.0" y="363.9" width="33.8" height="22.1" rx="2" fill="#9ecae1"/>
<text x="569.9" y="359.9" font-size="9" fill="#52606d" text-anchor="middle">27.9</text>
<rect x="589.8" y="341.3" width="33.8" height="44.7" rx="2" fill="#4292c6"/>
<text x="606.7" y="337.3" font-size="9" fill="#52606d" text-anchor="middle">56.6</text>
<rect x="626.6" y="251.3" width="33.8" height="134.7" rx="2" fill="#08519c"/>
<text x="643.5" y="247.3" font-size="9" fill="#52606d" text-anchor="middle">170.5</text>
<text x="608.2" y="408" font-size="11.5" fill="#1f2933" text-anchor="middle">mvc-native</text>
<rect x="706.2" y="352.0" width="33.8" height="34.0" rx="2" fill="#9ecae1"/>
<text x="723.1" y="348.0" font-size="9" fill="#52606d" text-anchor="middle">43.0</text>
<rect x="743.0" y="317.7" width="33.8" height="68.3" rx="2" fill="#4292c6"/>
<text x="759.9" y="313.7" font-size="9" fill="#52606d" text-anchor="middle">86.4</text>
<rect x="779.8" y="152.0" width="33.8" height="234.0" rx="2" fill="#08519c"/>
<text x="796.7" y="148.0" font-size="9" fill="#52606d" text-anchor="middle">296.3</text>
<text x="761.4" y="408" font-size="11.5" fill="#1f2933" text-anchor="middle">webflux-native</text>
</svg>