<svg xmlns="http://www.w3.org/2000/svg" width="860" height="450" viewBox="0 0 860 450" font-family="-apple-system, Segoe UI, Roboto, Helvetica, Arial, sans-serif">
<rect width="860" height="450" rx="10" fill="#ffffff" stroke="#e5e9f0"/>
<text x="72" y="32" font-size="16" font-weight="700" fill="#1f2933">Startup: process → ready — lower is better (log scale)</text>
<line x1="72" y1="386.0" x2="838" y2="386.0" stroke="#9aa5b1"/>
<text x="64" y="390.0" font-size="11" fill="#7b8794" text-anchor="end">0.1 ms</text>
<line x1="72" y1="322.8" x2="838" y2="322.8" stroke="#eceff4"/>
<text x="64" y="326.8" font-size="11" fill="#7b8794" text-anchor="end">1 ms</text>
<line x1="72" y1="259.6" x2="838" y2="259.6" stroke="#eceff4"/>
<text x="64" y="263.6" font-size="11" fill="#7b8794" text-anchor="end">10 ms</text>
<line x1="72" y1="196.4" x2="838" y2="196.4" stroke="#eceff4"/>
<text x="64" y="200.4" font-size="11" fill="#7b8794" text-anchor="end">100 ms</text>
<line x1="72" y1="133.2" x2="838" y2="133.2" stroke="#eceff4"/>
<text x="64" y="137.2" font-size="11" fill="#7b8794" text-anchor="end">1 s</text>
<line x1="72" y1="70.0" x2="838" y2="70.0" stroke="#eceff4"/>
<text x="64" y="74.0" font-size="11" fill="#7b8794" text-anchor="end">10 s</text>
<text x="18" y="228" font-size="12" fill="#3e4c59" text-anchor="middle" transform="rotate(-90 18 228)"></text>
<rect x="93.4" y="341.8" width="107.3" height="44.2" rx="2" fill="#4292c6"/>
<text x="147.1" y="337.8" font-size="9" fill="#52606d" text-anchor="middle">0.5 ms</text>
<text x="148.6" y="408" font-size="11.5" fill="#1f2933" text-anchor="middle">rust</text>
<rect x="246.6" y="87.9" width="107.3" height="298.1" rx="2" fill="#4292c6"/>
<text x="300.3" y="83.9" font-size="9" fill="#52606d" text-anchor="middle">5.2 s</text>
<text x="301.8" y="408" font-size="11.5" fill="#1f2933" text-anchor="middle">mvc-jvm</text>
<rect x="399.8" y="97.3" width="107.3" height="288.7" rx="2" fill="#4292c6"/>
<text x="453.5" y="93.3" font-size="9" fill="#52606d" text-anchor="middle">3.7 s</text>
<text x="455.0" y="408" font-size="11.5" fill="#1f2933" text-anchor="middle">webflux-jvm</text>
<rect x="553.0" y="134.6" width="107.3" height="251.4" rx="2" fill="#4292c6"/>
<text x="606.7" y="130.6" font-size="9" fill="#52606d" text-anchor="middle">950 ms</text>
<text x="608.2" y="408" font-size="11.5" fill="#1f2933" text-anchor="middle">mvc-native</text>
<rect x="706.2" y="169.1" width="107.3" height="216.9" rx="2" fill="#4292c6"/>
<text x="759.9" y="165.1" font-size="9" fill="#52606d" text-anchor="middle">270 ms</text>
<text x="761.4" y="408" font-size="11.5" fill="#1f2933" text-anchor="middle">webflux-native</text>
</svg>