<svg xmlns="http://www.w3.org/2000/svg" width="860" height="450" viewBox="0 0 860 450" font-family="-apple-system, Segoe UI, Roboto, Helvetica, Arial, sans-serif">
<rect width="860" height="450" rx="10" fill="#ffffff" stroke="#e5e9f0"/>
<text x="72" y="32" font-size="16" font-weight="700" fill="#1f2933">Throughput (req/s) — higher is better</text>
<rect x="562" y="19" width="12" height="12" rx="2" fill="#9ecae1"/>
<text x="579" y="29" font-size="12" fill="#3e4c59">50 VUs</text>
<rect x="654" y="19" width="12" height="12" rx="2" fill="#4292c6"/>
<text x="671" y="29" font-size="12" fill="#3e4c59">100 VUs</text>
<rect x="746" y="19" width="12" height="12" rx="2" fill="#08519c"/>
<text x="763" y="29" font-size="12" fill="#3e4c59">300 VUs</text>
<line x1="72" y1="386.0" x2="838" y2="386.0" stroke="#9aa5b1"/>
<text x="64" y="390.0" font-size="11" fill="#7b8794" text-anchor="end">0</text>
<line x1="72" y1="322.8" x2="838" y2="322.8" stroke="#eceff4"/>
<text x="64" y="326.8" font-size="11" fill="#7b8794" text-anchor="end">500</text>
<line x1="72" y1="259.6" x2="838" y2="259.6" stroke="#eceff4"/>
<text x="64" y="263.6" font-size="11" fill="#7b8794" text-anchor="end">1k</text>
<line x1="72" y1="196.4" x2="838" y2="196.4" stroke="#eceff4"/>
<text x="64" y="200.4" font-size="11" fill="#7b8794" text-anchor="end">1.5k</text>
<line x1="72" y1="133.2" x2="838" y2="133.2" stroke="#eceff4"/>
<text x="64" y="137.2" font-size="11" fill="#7b8794" text-anchor="end">2k</text>
<line x1="72" y1="70.0" x2="838" y2="70.0" stroke="#eceff4"/>
<text x="64" y="74.0" font-size="11" fill="#7b8794" text-anchor="end">2.5k</text>
<text x="18" y="228" font-size="12" fill="#3e4c59" text-anchor="middle" transform="rotate(-90 18 228)">req/s</text>
<rect x="93.4" y="98.9" width="33.8" height="287.1" rx="2" fill="#9ecae1"/>
<text x="110.3" y="94.9" font-size="9" fill="#52606d" text-anchor="middle">2271</text>
<rect x="130.2" y="100.0" width="33.8" height="286.0" rx="2" fill="#4292c6"/>
<text x="147.1" y="96.0" font-size="9" fill="#52606d" text-anchor="middle">2263</text>
<rect x="167.0" y="100.1" width="33.8" height="285.9" rx="2" fill="#08519c"/>
<text x="183.9" y="96.1" font-size="9" fill="#52606d" text-anchor="middle">2262</text>
<text x="148.6" y="408" font-size="11.5" fill="#1f2933" text-anchor="middle">rust</text>
<rect x="246.6" y="137.7" width="33.8" height="248.3" rx="2" fill="#9ecae1"/>
<text x="263.5" y="133.7" font-size="9" fill="#52606d" text-anchor="middle">1965</text>
<rect x="283.4" y="128.7" width="33.8" height="257.3" rx="2" fill="#4292c6"/>
<text x="300.3" y="124.7" font-size="9" fill="#52606d" text-anchor="middle">2035</text>
<rect x="320.2" y="126.7" width="33.8" height="259.3" rx="2" fill="#08519c"/>
<text x="337.1" y="122.7" font-size="9" fill="#52606d" text-anchor="middle">2052</text>
<text x="301.8" y="408" font-size="11.5" fill="#1f2933" text-anchor="middle">mvc-jvm</text>
<rect x="399.8" y="146.8" width="33.8" height="239.2" rx="2" fill="#9ecae1"/>
<text x="416.7" y="142.8" font-size="9" fill="#52606d" text-anchor="middle">1892</text>
<rect x="436.6" y="138.2" width="33.8" height="247.8" rx="2" fill="#4292c6"/>
<text x="453.5" y="134.2" font-size="9" fill="#52606d" text-anchor="middle">1960</text>
<rect x="473.4" y="143.9" width="33.8" height="242.1" rx="2" fill="#08519c"/>
<text x="490.3" y="139.9" font-size="9" fill="#52606d" text-anchor="middle">1915</text>
<text x="455.0" y="408" font-size="11.5" fill="#1f2933" text-anchor="middle">webflux-jvm</text>
<rect x="553.0" y="146.7" width="33.8" height="239.3" rx="2" fill="#9ecae1"/>
<text x="569.9" y="142.7" font-size="9" fill="#52606d" text-anchor="middle">1893</text>
<rect x="589.8" y="146.3" width="33.8" height="239.7" rx="2" fill="#4292c6"/>
<text x="606.7" y="142.3" font-size="9" fill="#52606d" text-anchor="middle">1897</text>
<rect x="626.6" y="148.3" width="33.8" height="237.7" rx="2" fill="#08519c"/>
<text x="643.5" y="144.3" font-size="9" fill="#52606d" text-anchor="middle">1880</text>
<text x="608.2" y="408" font-size="11.5" fill="#1f2933" text-anchor="middle">mvc-native</text>
<rect x="706.2" y="238.3" width="33.8" height="147.7" rx="2" fill="#9ecae1"/>
<text x="723.1" y="234.3" font-size="9" fill="#52606d" text-anchor="middle">1168</text>
<rect x="743.0" y="237.7" width="33.8" height="148.3" rx="2" fill="#4292c6"/>
<text x="759.9" y="233.7" font-size="9" fill="#52606d" text-anchor="middle">1173</text>
<rect x="779.8" y="255.1" width="33.8" height="130.9" rx="2" fill="#08519c"/>
<text x="796.7" y="251.1" font-size="9" fill="#52606d" text-anchor="middle">1036</text>
<text x="761.4" y="408" font-size="11.5" fill="#1f2933" text-anchor="middle">webflux-native</text>
</svg>